<?xml version="1.0" encoding="utf-8"?>
<!-- Generator: Adobe Illustrator 17.1.0, SVG Export Plug-In . SVG Version: 6.00 Build 0)  -->
<!DOCTYPE svg PUBLIC "-//W3C//DTD SVG 1.1//EN" "http://www.w3.org/Graphics/SVG/1.1/DTD/svg11.dtd">
<svg version="1.1"
	 id="svg2985" xmlns:dc="http://purl.org/dc/elements/1.1/" xmlns:inkscape="http://www.inkscape.org/namespaces/inkscape" xmlns:cc="http://creativecommons.org/ns#" xmlns:rdf="http://www.w3.org/1999/02/22-rdf-syntax-ns#" xmlns:svg="http://www.w3.org/2000/svg" xmlns:sodipodi="http://sodipodi.sourceforge.net/DTD/sodipodi-0.dtd" sodipodi:docname="dropbox-logos_dropbox-logotype-blue.pdf" inkscape:version="0.48.4 r9939"
	 xmlns="http://www.w3.org/2000/svg" xmlns:xlink="http://www.w3.org/1999/xlink" x="0px" y="0px" width="103.0797424px"
	 height="96.1987915px" viewBox="2.6077552 0.9999998 103.0797424 96.1987915"
	 enable-background="new 2.6077552 0.9999998 103.0797424 96.1987915" xml:space="preserve">
<sodipodi:namedview  inkscape:zoom="0.59730942" inkscape:cx="278.75" gridtolerance="10" pagecolor="#ffffff" showgrid="false" bordercolor="#666666" guidetolerance="10" inkscape:cy="106.25" borderopacity="1" objecttolerance="10" id="namedview2987" inkscape:current-layer="g2993" inkscape:pageopacity="0" inkscape:pageshadow="2" inkscape:window-maximized="1" inkscape:window-height="1018" inkscape:window-y="-8" inkscape:window-x="-8" inkscape:window-width="1920">
	</sodipodi:namedview>
<g id="g2993" transform="matrix(1.25,0,0,-1.25,0,212.5)" inkscape:label="dropbox-logos_dropbox-logotype-blue" inkscape:groupmode="layer">
	<g>
		<g id="g2995" transform="translate(76.1162,130.9785)">
			<path id="path2997" fill="#007EE5" d="M-49.4275856,37.3215485l-23.8024101-15.5410557l16.4576416-13.1792889
				l23.9992294,14.8188686L-49.4275856,37.3215485z"/>
		</g>
		<g id="g2999" transform="translate(46.4863,78.8198)">
			<path id="path3001" fill="#007EE5" d="M-43.6000175,47.5800476l23.802412-15.5410538l16.654459,13.9022789L-27.142374,60.7601433
				L-43.6000175,47.5800476z"/>
		</g>
		<g id="g3003" transform="translate(96.8486,76.7798)">
			<path id="path3005" fill="#007EE5" d="M-53.5052032,47.9812737l16.655262-13.9022789l23.801609,15.5410538
				l-16.4576454,13.1800957L-53.5052032,47.9812737z"/>
		</g>
		<g id="g3007" transform="translate(147.2109,111.6328)">
			<path id="path3009" fill="#007EE5" d="M-63.4103928,41.1264343l-23.8016129,15.5410576l-16.6552582-13.9014778
				l23.9992294-14.8188705L-63.4103928,41.1264343z"/>
		</g>
		<g id="g3011" transform="translate(96.9092,73.0566)">
			<path id="path3013" fill="#007EE5" d="M-53.5171242,48.7135468l-16.7034645-13.860508l-7.1471481,4.6664963v-5.2320328
				l23.8506126-14.3031387l23.8514175,14.3031387v5.2320328l-7.146347-4.6664963L-53.5171242,48.7135468z"/>
		</g>
	</g>
</g>
</svg>
