<?xml version="1.0" encoding="utf-8"?>
<!-- Generator: Adobe Illustrator 19.2.1, SVG Export Plug-In . SVG Version: 6.00 Build 0)  -->
<svg version="1.1" id="getty_logo" xmlns="http://www.w3.org/2000/svg" xmlns:xlink="http://www.w3.org/1999/xlink" x="0px" y="0px"
	 width="444.5px" height="75.7609329px" viewBox="0 0 444.5 75.7609329" style="enable-background:new 0 0 444.5 75.7609329;"
	 xml:space="preserve">
<style type="text/css">
	.st0{fill:#FFFFFF;}
</style>
<g>
	<g id="XMLID_1060_">
		<g>
			<g id="XMLID_191_">
				<path id="XMLID_215_" class="st0" d="M43.1437645,21.5278454c-2.6280632,0-5.5285301,0-7.2503052,1.0226822
					c1.4493752,1.8757305,2.5372658,4.4348793,2.5372658,7.8454475c0,8.3559742-5.9825287,14.3256931-17.7659874,14.3256931
					c-4.8929272,0-8.7904797,0.1712608-8.7904797,2.7287788c0,7.163662,30.9988194-2.557518,30.9988194,15.1787415
					c0,6.3106079-6.7980156,13.1317444-21.8451385,13.1317444C8.338192,75.7609329,0,72.1807404,0,65.1883392
					c0-5.5440102,4.44064-8.1863441,8.5197926-8.1863441v-0.1712608c-2.1757765-1.278759-6.9796171-2.387886-6.9796171-7.163662
					c0-4.2636185,5.2578411-7.5029221,7.3428173-8.0998955c-3.897552-2.9848595-6.9796166-6.3954277-6.9796166-11.7681732
					c0-7.7606316,6.3440166-15.4348183,18.5814743-15.4348183c3.9883537,0,8.7013931,1.5348368,11.6018581,3.9227238
					c2.1740646-2.7287807,5.7101288-4.0939865,11.0570564-3.9227238V21.5278454z M10.3323689,63.8231316
					c0,3.4105721,3.0820646,4.9454079,12.5081444,4.9454079c7.252018,0,9.6984806-3.4105682,9.6984806-4.9454079
					c0-2.0469933-3.3527508-5.1166687-14.2299194-5.1166687C12.1449451,58.7064629,10.3323689,61.947403,10.3323689,63.8231316z
					 M20.3940506,22.2096329c-4.8038406,0-8.1583061,3.2393074-8.1583061,7.3332939s3.3544655,7.3332901,8.1583061,7.3332901
					c4.2590389,0,7.7043037-3.2393036,7.7043037-7.3332901S24.6530895,22.2096329,20.3940506,22.2096329z"/>
				<path id="XMLID_213_" class="st0" d="M151.4790497,66.723175c1.7217712,0.3408966,3.0820618,0.3408966,4.713028,0.3408966
					c3.8975525,0,6.0733337-1.0243149,7.4336243-3.4970169c1.0861816-2.1318092,1.8125763-3.4105682,1.8125763-5.2014847
					c0-1.6196518-0.9062958-3.4953842-1.4510956-5.2862968L151.0893097,14.349824h11.3294525l8.0940399,28.15522h0.1816101
					l8.3427734-28.15522h11.2386475l-15.1390686,45.2945061c-4.9854431,12.7060356-8.9738007,16.1166039-18.219986,16.1166039
					c-2.7188721,0-4.0774384-0.1696243-5.4377289-0.340889V66.723175z"/>
				<path id="XMLID_210_" class="st0" d="M197.9840698,7.573987V0.2390634h5.2509766V7.573987H197.9840698z M203.2350464,60.2782936
					h-5.2509766V14.349824h5.2509766V60.2782936z"/>
				<path id="XMLID_208_" class="st0" d="M215.4040222,60.29356V14.349824h5.2509918v7.4520426
					c4.6393738-4.6681232,8.0538025-7.4181089,15.1447754-7.4181089c5.0762329,0,9.7156067,3.0843554,11.0279236,7.9172163
					c4.1151276-4.5833073,8.4906769-7.9172163,15.0556793-7.9172163c7.9664307,0,11.9924927,4.1673861,11.9924927,11.7518625
					V60.29356h-5.2510071V25.634882c0-4.8328629-2.8010864-7.2501087-7.8790283-7.2501087
					c-4.026062,0-10.6784515,4.0825691-13.4795532,8.2499542V60.29356h-5.2527008V25.634882
					c0-4.8328629-2.8011017-7.2501087-7.8773346-7.2501087c-4.0277557,0-10.6801453,4.0825691-13.4812469,8.2499542V60.29356
					H215.4040222z"/>
				<path id="XMLID_205_" class="st0" d="M313.1957397,60.29356l-0.6989746-6.0991592
					c-5.4274597,4.084198-9.542572,6.0838928-16.5444641,6.0838928c-7.0909729,0-12.5184326-4.1673851-12.5184326-11.3343086
					c0-11.833416,10.1542053-14.8927803,29.1502686-18.8921642v-2.9995384c0-5.7511539-2.6263428-8.6675091-10.4180298-8.6675091
					c-5.4257202,0-9.8903503,2.8331699-13.2174072,7.8340321l-3.5000916-2.0013237
					c3.9386597-6.9989243,9.540863-9.833724,16.8939514-9.833724c10.328949,0,15.2304382,4.0010157,15.2304382,13.5851851
					v22.6669865c0,2.1676903,0.1747437,6.7412796,0.7007141,9.6576309H313.1957397z M312.3203125,34.0512047
					c-20.8326416,4.3337555-23.633728,9.3096237-23.633728,14.8095932c0,4.7496796,3.4144287,7.4164772,8.1411743,7.4164772
					c4.9014893,0,10.9405518-2.7499847,15.4925537-7.1669235V34.0512047z"/>
				<path id="XMLID_201_" class="st0" d="M367.0419312,18.0504036c-2.3625183,0-5.4274292,0.2511864-7.2657166,2.0013237
					c2.013031,2.3324318,3.2396851,4.9160461,3.2396851,9.0834312c0,10.667202-7.9664307,15.1673241-17.5946655,15.1673241
					c-2.8884888,0-5.0779419-0.5839233-7.3530884-1.3342171c-2.8884888,1.0014763-4.2008057,2.5836182-4.2008057,4.1673851
					c0,2.5004311,1.7492065,3.7498322,14.092865,3.7498322c13.6542969,0,19.3438721,4.1673851,19.3438721,11.2511215
					c0,6.3334503-5.0762634,11.7502289-20.7452698,11.7502289s-19.869812-5.0824127-19.869812-10.2496414
					c0-3.7498322,1.5761414-6.9173698,7.9647217-9.1682472v-0.1663704c-3.3253479-0.6671066-6.0390625-1.999691-6.0390625-5.6663399
					c0-3.6666451,3.5018005-6.6678123,6.8271179-7.3332901c-4.1134033-2.6668015-6.5650024-6.8341866-6.5650024-11.3343086
					c0-9.5009842,7.0036011-15.584878,18.0332336-15.584878c4.3755493,0,7.7026062,1.1678467,10.5910645,3.0011702
					c2.6263428-2.5004311,5.9516907-3.8346472,9.540863-3.8346472V18.0504036z M331.9417114,62.7205276
					c0,4.2489395,4.3755188,7.1669235,13.82901,7.1669235c11.3791504,0,16.2823486-2.917984,16.2823486-7.4181061
					c0-3.5834618-2.9758301-7.0837402-16.6318359-7.0837402C335.0922852,55.3856049,331.9417114,58.9690666,331.9417114,62.7205276z
					 M345.9454651,40.3014679c7.3531189,0,11.8177185-3.3322792,11.8177185-10.8335705
					c0-7.5828476-4.4645996-11.0831242-11.8177185-11.0831242c-7.3513794,0-11.8160095,4.3337536-11.8160095,11.0831242
					C334.1294556,36.9691887,339.5569153,40.3014679,345.9454651,40.3014679z"/>
				<path id="XMLID_198_" class="st0" d="M373.5851135,37.0523758c0,9.8337212,4.289856,19.2401695,14.6188049,19.2401695
					c5.8643188,0,8.7528076-1.9165077,13.3047791-8.7490616l4.2881775,2.1660614
					c-4.9014893,7.6676636-9.3661194,10.5840149-18.0315247,10.5840149c-11.9050903,0-19.4329529-8.1570473-19.4329529-23.4075546
					c0-13.4171848,7.1783447-22.5022469,18.7322388-22.5022469c12.343689,0,18.2080078,9.2514315,18.2080078,22.6686172H373.5851135
					z M400.019928,33.0513573c-1.0502014-8.9170609-5.1636047-14.5833988-13.1300354-14.666584
					c-9.2787476-0.0831833-13.2174072,8.9170628-13.3047791,14.666584H400.019928z"/>
				<path id="XMLID_196_" class="st0" d="M415.0002441,48.9592514c4.2898865,5.8343391,8.1411743,7.3332939,14.094574,7.3332939
					c5.776947,0,10.1524658-4.4904022,10.1524658-9.1568947c0-12.5837059-26.7843018-5.4999695-26.7843018-20.9168453
					c0-8.1684017,6.7397461-11.8350477,14.4423523-11.8350477c7.6152039,0,12.4310608,2.8347998,15.6690063,7.8340311
					l-4.0260315,2.6667995c-3.0649414-3.9993839-6.3902588-6.499815-11.8177185-6.499815
					c-5.0762329,0-9.0166321,2.3324318-9.0166321,7.5828457c0,10.5840168,26.7860413,4.3337555,26.7860413,21.1680317
					c0,7.7508469-7.527832,13.1579094-15.7563782,13.1579094c-7.0018921,0-13.3048096-2.6667976-17.5946655-8.7506905
					L415.0002441,48.9592514z"/>
				<path id="XMLID_194_" class="st0" d="M94.8673859,14.349824V0.549019h11.2403641V14.349824h9.2444839v8.5244684h-9.2444839
					v25.9256992c0,2.385479,1.2677765,3.068676,4.0774384,3.068676c1.7234955,0,3.5360718-0.5119896,5.1670456-0.8527718v8.6956749
					c-3.0820694,0.3407822-5.8009262,0.6815643-8.8829956,0.6815643c-8.3381882,0-11.6018524-3.9214516-11.6018524-10.2300148
					V22.8742924h-6.5256195V14.349824H94.8673859z"/>
				<path id="XMLID_192_" class="st0" d="M125.8358307,14.349824V0.549019h11.2386627V14.349824h9.2461853v8.5244684h-9.2461853
					v25.9256992c0,2.385479,1.2694855,3.068676,4.0791473,3.068676c1.7217712,0,3.5360565-0.5119896,5.167038-0.8527718v8.6956749
					c-3.0820618,0.3407822-5.8009338,0.6815643-8.8829956,0.6815643c-8.3381958,0-11.6018524-3.9214516-11.6018524-10.2300148
					V22.8742924h-6.5256195V14.349824H125.8358307z"/>
			</g>
			<path id="XMLID_188_" class="st0" d="M56.5745697,39.1145935c0.1816025,9.2090225,4.5314407,12.7908554,9.7892838,12.7908554
				s7.7043076-2.2182579,10.5139694-5.2879333l8.1583023,4.7757759c-4.3515549,6.3106117-10.6955643,9.0393906-19.7601624,9.0393906
				c-12.2357445,0-19.9400482-8.9545746-19.9400482-23.024189c0-14.0712433,7.7043037-23.024189,20.484848-23.024189
				c12.3265457-0.084816,19.2153625,9.72118,19.2153625,20.3802261v4.3500633H56.5745697z M74.7020416,31.9509315
				c-0.1798859-6.139349-3.625145-9.7211781-9.0628738-9.7211781c-5.4394455,0-8.8829956,3.5818291-9.0645981,9.7211781H74.7020416z
				"/>
		</g>
	</g>
</g>
</svg>
